HIERARCHY
ROOT Hips
{
	OFFSET 0.000000 0.000000 0.000000
	CHANNELS 6 Xposition Yposition Zposition Xrotation Yrotation Zrotation
	JOINT Chest
	{
		OFFSET 0.000000 0.009282 11.569106
		CHANNELS 3 Xrotation Yrotation Zrotation
		JOINT Chest2
		{
			OFFSET 0.000000 -0.016863 9.269641
			CHANNELS 3 Xrotation Yrotation Zrotation
			JOINT Chest3
			{
				OFFSET 0.000000 0.000000 8.374491
				CHANNELS 3 Xrotation Yrotation Zrotation
				JOINT Chest4
				{
					OFFSET 0.000000 0.000000 8.374493
					CHANNELS 3 Xrotation Yrotation Zrotation
					JOINT Neck
					{
						OFFSET 0.000000 -0.000001 12.152554
						CHANNELS 3 Xrotation Yrotation Zrotation
						JOINT Head
						{
							OFFSET 0.000000 -0.040100 7.802319
							CHANNELS 3 Xrotation Yrotation Zrotation
							End Site
							{
								OFFSET 0.000000 -0.020946 14.853096
							}
						}
					}
					JOINT RightCollar
					{
						OFFSET -2.894404 0.000000 6.791374
						CHANNELS 3 Xrotation Yrotation Zrotation
						JOINT RightShoulder
						{
							OFFSET -13.574684 0.000000 0.000000
							CHANNELS 3 Xrotation Yrotation Zrotation
							JOINT RightElbow
							{
								OFFSET -23.923903 0.000000 0.000000
								CHANNELS 3 Xrotation Yrotation Zrotation
								JOINT RightWrist
								{
									OFFSET -19.846718 -0.012765 0.000000
									CHANNELS 3 Xrotation Yrotation Zrotation
									End Site
									{
										OFFSET -14.973145 0.000000 0.000000
									}
								}
							}
						}
					}
					JOINT LeftCollar
					{
						OFFSET 2.894404 0.000000 6.791374
						CHANNELS 3 Xrotation Yrotation Zrotation
						JOINT LeftShoulder
						{
							OFFSET 13.574684 0.000000 0.000000
							CHANNELS 3 Xrotation Yrotation Zrotation
							JOINT LeftElbow
							{
								OFFSET 23.923903 0.000000 0.000000
								CHANNELS 3 Xrotation Yrotation Zrotation
								JOINT LeftWrist
								{
									OFFSET 19.846718 -0.012765 0.000000
									CHANNELS 3 Xrotation Yrotation Zrotation
									End Site
									{
										OFFSET 14.973145 0.000000 0.000000
									}
								}
							}
						}
					}
				}
			}
		}
	}
	JOINT RightHip
	{
		OFFSET -9.469263 -0.004642 0.045487
		CHANNELS 3 Xrotation Yrotation Zrotation
		JOINT RightKnee
		{
			OFFSET 0.000000 -0.002666 -40.478676
			CHANNELS 3 Xrotation Yrotation Zrotation
			JOINT RightAnkle
			{
				OFFSET 0.000000 -0.049110 -35.224068
				CHANNELS 3 Xrotation Yrotation Zrotation
				JOINT RightToe
				{
					OFFSET 0.000000 -12.539530 -6.151390
					CHANNELS 3 Xrotation Yrotation Zrotation
					End Site
					{
						OFFSET 0.000000 -5.044995 -1.291870
					}
				}
			}
		}
	}
	JOINT LeftHip
	{
		OFFSET 9.469263 -0.004642 0.045487
		CHANNELS 3 Xrotation Yrotation Zrotation
		JOINT LeftKnee
		{
			OFFSET 0.000000 -0.002666 -40.478676
			CHANNELS 3 Xrotation Yrotation Zrotation
			JOINT LeftAnkle
			{
				OFFSET 0.000000 -0.049110 -35.224068
				CHANNELS 3 Xrotation Yrotation Zrotation
				JOINT LeftToe
				{
					OFFSET 0.000000 -12.539530 -6.151390
					CHANNELS 3 Xrotation Yrotation Zrotation
					End Site
					{
						OFFSET 0.000000 -5.044995 -1.291870
					}
				}
			}
		}
	}
}
MOTION
Frames: 12
Frame Time: 0.016667
-12.217128 -6.661099 83.025597 2.538910 5.987023 -111.295002 3.744024 -0.188462 1.059087 1.661212 -0.089946 0.462896 1.661212 -0.089947 0.462893 1.245841 -0.068719 0.346928 15.490036 0.055220 -2.047882 -7.391500 0.854974 -3.706444 -19.848661 -3.573599 -3.754437 -62.845752 -21.184426 2.754655 -35.089059 -48.221952 46.123175 -58.767508 45.612809 36.429231 -13.451137 5.044368 -2.164539 -60.243532 16.963108 -2.985628 -35.393371 41.417164 -46.856952 -51.064810 -47.650852 -23.635532 8.416141 0.730165 -3.277667 3.352089 -1.632702 -5.933729 -4.674705 0.615793 3.274444 0.003590 0.000312 0.023717 9.541668 0.237996 -0.156980 1.949183 -0.675761 1.930470 -5.187240 0.901663 0.244683 0.012550 0.003322 -0.022459 
-12.206687 -6.656656 83.026627 2.519207 5.953651 -111.267723 3.726705 -0.186388 1.049669 1.653701 -0.089627 0.458721 1.653702 -0.089626 0.458720 1.240209 -0.068461 0.343798 15.439325 0.060704 -2.050893 -7.485459 0.867473 -3.709616 -19.941116 -3.565220 -3.743506 -63.240646 -21.132947 2.662463 -34.298997 -48.708548 46.822374 -59.107897 44.415484 35.765715 -13.506048 5.071185 -2.128203 -60.332044 16.954770 -2.871443 -34.940372 41.691540 -47.474446 -51.382294 -47.515010 -23.650254 8.389205 0.724845 -3.281419 3.319921 -1.626722 -5.958258 -4.653433 0.608933 3.302551 0.004928 0.004966 0.023685 9.497355 0.239189 -0.159344 1.942957 -0.685778 1.911053 -5.175272 0.909365 0.240090 0.014192 0.006641 -0.022995 
-12.195049 -6.654567 83.027168 2.496894 5.912018 -111.238626 3.706949 -0.183452 1.038382 1.645125 -0.088940 0.453711 1.645125 -0.088940 0.453712 1.233779 -0.067927 0.340050 15.400157 0.062844 -2.047703 -7.558206 0.871283 -3.702795 -20.016148 -3.568075 -3.733207 -63.669220 -21.065198 2.575976 -33.534917 -49.243369 47.517780 -59.535159 42.991430 35.041278 -13.543716 5.098173 -2.097261 -60.454913 16.932252 -2.746492 -34.439678 41.933974 -48.154640 -51.930150 -47.299548 -23.729575 8.353555 0.719624 -3.280248 3.285786 -1.624290 -5.983435 -4.630998 0.604982 3.310037 0.006538 0.008766 0.022596 9.442425 0.239049 -0.161899 1.937040 -0.692177 1.879433 -5.162520 0.912253 0.244619 0.016260 0.009830 -0.022758 
-12.182891 -6.652339 83.028175 2.472190 5.869842 -111.203246 3.698071 -0.169565 1.028390 1.641155 -0.082640 0.449446 1.641155 -0.082640 0.449444 1.230806 -0.063187 0.336862 15.371226 0.053134 -2.041777 -7.612305 0.852235 -3.695430 -20.109368 -3.596124 -3.741462 -64.139998 -21.013297 2.419367 -32.642318 -49.825554 48.360721 -60.037957 41.506076 34.311086 -13.580149 5.119478 -2.116507 -60.629267 16.905664 -2.594749 -33.926588 42.207694 -48.894725 -52.605413 -46.933351 -23.781366 8.318111 0.714519 -3.281573 3.249133 -1.620003 -6.017643 -4.606257 0.599534 3.309169 0.006828 0.011961 0.021999 9.386357 0.237183 -0.164186 1.928146 -0.693942 1.838962 -5.145612 0.913863 0.252306 0.016748 0.011447 -0.021838 
-12.172780 -6.648933 83.029449 2.449400 5.830819 -111.170044 3.679538 -0.156422 1.018445 1.632780 -0.076617 0.445367 1.632780 -0.076617 0.445367 1.224530 -0.058653 0.333822 15.366584 0.040134 -2.032527 -7.621475 0.825293 -3.683371 -20.140402 -3.621243 -3.739177 -64.704786 -20.988427 2.166465 -31.513663 -50.332545 49.394453 -60.352754 40.111502 33.458266 -13.611598 5.139191 -2.093091 -60.861965 16.959939 -2.412868 -33.365081 42.560087 -49.668535 -53.082120 -46.608275 -23.799466 8.290476 0.708399 -3.294461 3.206735 -1.613099 -6.038390 -4.579769 0.593916 3.320984 0.007241 0.013722 0.022647 9.335127 0.237441 -0.164110 1.920939 -0.701821 1.800770 -5.130194 0.918842 0.255599 0.016176 0.013323 -0.022105 
-12.164787 -6.644668 83.030067 2.423662 5.793669 -111.137949 3.648501 -0.145864 1.011113 1.618840 -0.071185 0.442377 1.618840 -0.071185 0.442376 1.214079 -0.054560 0.331598 15.389968 0.026796 -2.023215 -7.578577 0.796946 -3.671476 -20.185948 -3.660577 -3.707235 -65.279301 -20.903055 1.903687 -30.339533 -50.755969 50.367966 -60.441840 38.499700 32.447394 -13.634885 5.183241 -2.087151 -61.144243 17.022524 -2.207904 -32.739033 42.910500 -50.448904 -53.540108 -46.109378 -23.857557 8.270893 0.702178 -3.305246 3.154205 -1.606481 -6.067564 -4.554066 0.590362 3.298955 0.010435 0.015775 0.022212 9.290283 0.240182 -0.168796 1.905568 -0.706868 1.763655 -5.113421 0.921878 0.263816 0.016624 0.014743 -0.021387 
-12.160199 -6.639865 83.029778 2.401445 5.758586 -111.105471 3.612118 -0.136867 1.001058 1.602229 -0.066982 0.438441 1.602230 -0.066982 0.438441 1.201625 -0.051386 0.328654 15.434918 0.016664 -2.011175 -7.495662 0.772836 -3.653550 -20.285090 -3.720596 -3.664647 -65.786770 -20.794796 1.679195 -29.212395 -51.145092 51.246670 -60.434074 36.989723 31.523761 -13.695830 5.226159 -2.066379 -61.386257 17.115090 -2.004481 -32.060170 43.188898 -51.242159 -54.114008 -45.485911 -24.057034 8.257375 0.696880 -3.319359 3.100305 -1.601763 -6.093811 -4.530273 0.585045 3.277052 0.014145 0.017415 0.022490 9.250371 0.240868 -0.178146 1.892512 -0.711204 1.730142 -5.102177 0.922183 0.272830 0.018461 0.017286 -0.021725 
-12.157813 -6.635429 83.029228 2.384116 5.727680 -111.075535 3.571665 -0.133194 0.989840 1.584156 -0.065775 0.433821 1.584156 -0.065775 0.433816 1.188071 -0.050457 0.325198 15.496504 0.014631 -1.998101 -7.381686 0.762636 -3.630810 -20.370366 -3.757763 -3.644383 -66.309730 -20.721529 1.470150 -28.171969 -51.548852 51.991537 -60.520182 35.400563 30.592803 -13.744432 5.266169 -2.051059 -61.581703 17.210499 -1.806485 -31.415038 43.432442 -51.992192 -55.014124 -44.709544 -24.528319 8.246513 0.690740 -3.342794 3.055447 -1.595182 -6.103849 -4.511863 0.576234 3.285700 0.017369 0.019144 0.022721 9.216457 0.240758 -0.198489 1.882176 -0.716333 1.711719 -5.094663 0.922689 0.281493 0.020995 0.018940 -0.022428 
-12.156071 -6.630640 83.029694 2.371606 5.707492 -111.049997 3.530595 -0.135247 0.975579 1.566269 -0.066630 0.427847 1.566270 -0.066630 0.427847 1.174655 -0.051070 0.320720 15.554518 0.022039 -1.982588 -7.274175 0.768837 -3.600148 -20.414336 -3.760934 -3.641574 -66.909298 -20.699349 1.241215 -27.244101 -51.972494 52.563760 -60.521575 33.758026 29.602074 -13.736733 5.306675 -2.063682 -61.788480 17.298946 -1.583699 -30.861438 43.769611 -52.711363 -55.954037 -43.908209 -25.138627 8.240459 0.687617 -3.353505 3.023536 -1.592434 -6.111759 -4.496333 0.569491 3.308391 0.017221 0.019790 0.023194 9.191304 0.238491 -0.217079 1.879721 -0.717333 1.695630 -5.089071 0.920739 0.289471 0.020590 0.020917 -0.022624 
-12.152387 -6.628593 83.030998 2.364483 5.701923 -111.030592 3.494672 -0.140818 0.953942 1.551132 -0.068886 0.418323 1.551131 -0.068886 0.418320 1.163302 -0.052727 0.313567 15.601330 0.037342 -1.963170 -7.187409 0.788304 -3.559441 -20.479182 -3.785736 -3.609525 -67.448897 -20.676986 0.983384 -26.468998 -52.370855 52.997296 -60.236244 31.716632 28.323888 -13.757179 5.331777 -2.025264 -61.991856 17.441940 -1.312964 -30.314524 44.092877 -53.411833 -56.919525 -42.821939 -25.677621 8.236761 0.685959 -3.346495 3.015234 -1.595025 -6.125349 -4.489219 0.567982 3.284443 0.014734 0.019627 0.022545 9.175986 0.240658 -0.234604 1.886007 -0.722107 1.685559 -5.084164 0.920011 0.296969 0.018186 0.022170 -0.022012 
-12.142870 -6.625818 83.031906 2.364174 5.709812 -111.020668 3.468418 -0.144861 0.935396 1.540136 -0.069797 0.409564 1.540136 -0.069797 0.409567 1.155056 -0.053380 0.307006 15.638669 0.050212 -1.943997 -7.118257 0.803707 -3.520009 -20.675679 -3.876401 -3.557138 -67.747164 -20.606129 0.758789 -25.818240 -52.758782 53.359777 -59.736247 29.625754 26.947740 -13.761509 5.361655 -1.975242 -62.333044 17.617314 -1.008191 -29.674406 44.343863 -54.096341 -57.838629 -41.754917 -26.151138 8.224985 0.687566 -3.325137 3.041656 -1.597742 -6.134830 -4.493209 0.568714 3.287975 0.012107 0.015461 0.024150 9.167730 0.240150 -0.263391 1.904030 -0.724624 1.687138 -5.084455 0.918414 0.311969 0.017457 0.024189 -0.022056 
-12.128196 -6.626631 83.032082 2.365456 5.724175 -111.022109 3.450845 -0.140629 0.927899 1.532545 -0.067216 0.406128 1.532546 -0.067216 0.406124 1.149366 -0.051431 0.304428 15.668802 0.051172 -1.928960 -7.062671 0.799163 -3.492457 -20.782613 -3.964610 -3.528746 -68.025604 -20.535119 0.515193 -25.222231 -53.070030 53.681967 -59.221217 27.684130 25.778006 -13.714267 5.418277 -2.008443 -62.868264 17.712036 -0.682363 -29.021337 44.524162 -54.620531 -58.798059 -40.362006 -26.544676 8.210115 0.688680 -3.316082 3.079862 -1.601646 -6.126514 -4.502560 0.578276 3.280184 0.012688 0.008990 0.024725 9.158250 0.246027 -0.289825 1.932542 -0.731289 1.700886 -5.088588 0.914232 0.323180 0.018015 0.028832 -0.022944 
